<svg width="156" height="100" viewBox="0 0 156 100" fill="none" xmlns="http://www.w3.org/2000/svg">
<path d="M21.9688 35.5241L20.5519 36.0502C19.1946 36.5542 18.806 38.2888 19.8185 39.3237L31.3898 51.1517C31.9701 51.7449 32.9046 51.804 33.555 51.2887C34.2423 50.7443 34.3721 49.752 33.8479 49.0491L24.2683 36.2034C23.7376 35.4916 22.8011 35.215 21.9688 35.5241Z" fill="white"/>
<path d="M44.1308 46.5068L19.9937 65.8936C19.2103 66.5228 18.0785 66.4601 17.3693 65.7481C16.6102 64.9859 16.6045 63.7551 17.3565 62.9859L38.7974 41.0571C40.2839 39.5368 42.7179 39.4278 44.2392 40.9132C44.3434 41.0149 44.4442 41.1146 44.5403 41.2111C46.0394 42.7162 45.787 45.1765 44.1308 46.5068Z" fill="white"/>
<path d="M51.4376 36.913C47.1565 38.5846 52.7001 41.0389 47.6322 43.1215C46.6073 41.0653 43.7233 38.6694 41.9241 37.8682C41.9241 35.0623 45.6587 35.0374 47.8701 35.0028C50.0814 34.9681 55.7187 35.2415 51.4376 36.913Z" fill="#2776EA"/>
<path d="M40.4282 47.256L40.0102 47.5294L40.4282 47.256ZM36.0039 43.7278L35.7676 44.169L37.2909 44.9917L37.5272 44.5505L37.7634 44.1093L36.2402 43.2866L36.0039 43.7278ZM40.4282 47.256L40.0102 47.5294C40.2089 47.8355 40.4661 48.2237 40.6729 48.5343C40.7765 48.6898 40.8677 48.8263 40.933 48.924C40.9657 48.9728 40.9919 49.0119 41.0099 49.0388C41.019 49.0523 41.0259 49.0627 41.0307 49.0698C41.0331 49.0733 41.0349 49.076 41.0361 49.0778C41.0367 49.0787 41.0372 49.0794 41.0375 49.0799C41.0376 49.0801 41.0377 49.0803 41.0378 49.0804C41.0379 49.0804 41.0379 49.0805 41.0379 49.0805C41.0379 49.0805 41.0379 49.0806 41.0379 49.0806C41.0379 49.0806 41.0379 49.0806 41.4517 48.8007C41.8655 48.5208 41.8655 48.5208 41.8655 48.5208C41.8655 48.5208 41.8655 48.5208 41.8655 48.5207C41.8655 48.5207 41.8654 48.5207 41.8654 48.5206C41.8653 48.5205 41.8652 48.5204 41.8651 48.5201C41.8648 48.5197 41.8643 48.519 41.8637 48.5181C41.8625 48.5164 41.8608 48.5137 41.8584 48.5102C41.8538 48.5033 41.8468 48.4929 41.8379 48.4796C41.82 48.4529 41.7939 48.414 41.7614 48.3654C41.6964 48.2682 41.6056 48.1324 41.5026 47.9776C41.2962 47.6676 41.0416 47.2834 40.8463 46.9825L40.4282 47.256ZM37.5272 44.5505L37.2909 44.9917C38.3936 45.5872 39.3207 46.4673 40.0102 47.5294L40.4282 47.256L40.8463 46.9825C40.0714 45.7888 39.0226 44.7893 37.7634 44.1093L37.5272 44.5505Z" fill="white"/>
<path d="M64.76 60.32H53.12L51.12 66H46.36L56.32 38.16H61.6L71.56 66H66.76L64.76 60.32ZM63.48 56.6L58.96 43.68L54.4 56.6H63.48ZM86.5706 38.2C89.5306 38.2 92.1173 38.7733 94.3306 39.92C96.5706 41.04 98.2906 42.6667 99.4906 44.8C100.717 46.9067 101.331 49.3733 101.331 52.2C101.331 55.0267 100.717 57.48 99.4906 59.56C98.2906 61.64 96.5706 63.24 94.3306 64.36C92.1173 65.4533 89.5306 66 86.5706 66H77.4906V38.2H86.5706ZM86.5706 62.28C89.824 62.28 92.3173 61.4 94.0506 59.64C95.784 57.88 96.6506 55.4 96.6506 52.2C96.6506 48.9733 95.784 46.4533 94.0506 44.64C92.3173 42.8267 89.824 41.92 86.5706 41.92H82.0506V62.28H86.5706ZM124.21 60.32H112.57L110.57 66H105.81L115.77 38.16H121.05L131.01 66H126.21L124.21 60.32ZM122.93 56.6L118.41 43.68L113.85 56.6H122.93Z" fill="white"/>
</svg>
